<?xml version="1.0" encoding="UTF-8" standalone="no"?>
<!DOCTYPE svg PUBLIC "-//W3C//DTD SVG 1.1//EN" "http://www.w3.org/Graphics/SVG/1.1/DTD/svg11.dtd">
<svg width="100%" height="100%" viewBox="0 0 3000 3000" version="1.1" xmlns="http://www.w3.org/2000/svg" xmlns:xlink="http://www.w3.org/1999/xlink" xml:space="preserve" xmlns:serif="http://www.serif.com/" style="fill-rule:evenodd;clip-rule:evenodd;stroke-linejoin:round;stroke-miterlimit:2;">
    <path d="M259.687,1923.34C250.306,1895.78 241.774,1867.72 234.13,1839.19C46.926,1140.54 462.158,421.333 1160.81,234.13C1727.22,82.36 2307.14,326.55 2606.14,796.711L2426.8,1067.29L931.078,1468.06L1328.92,865.374L1382.5,1065.32L2286.6,823.065C2034.6,530.881 1628.82,391.211 1231.43,497.69C834.047,604.169 552.465,928.017 480.32,1307.06L708.667,1245.87L259.687,1923.34ZM2742.67,1083.65C2751.13,1108.96 2758.87,1134.69 2765.87,1160.81C2953.07,1859.46 2537.84,2578.67 1839.19,2765.87C1274.94,2917.06 697.282,2675.31 397.297,2208.66L572.729,1943.97L1547.92,1682.67L1547.92,1682.66L2071.38,1542.4L1671.94,2145.53L1618.4,1945.72L721.384,2186.08C973.914,2472.02 1375.35,2607.67 1768.57,2502.31C2161.27,2397.09 2440.88,2079.59 2517.04,1706.33L2289.64,1767.26L2742.67,1083.65Z"/>
</svg>
